# xmcd
# 
# Track frame offsets:
#     150
#     11450
#     31350
#     47800
# 
# Disc length: 958
# 
# Revision: 0
# Processed by: cddbd v1.5.2PL0 Copyright (c) Steve Scherf et al.
# Submitted via: fre:ac v1.0.31
# 
DISCID=2703bc04
DTITLE=Mosaic Eyes - A Sunday Dress Till Monday
DYEAR=1992
DGENRE=Rock and Roll
TTITLE0=Let's Party
TTITLE1=Moody Morning
TTITLE2=Mother
TTITLE3=Sweetest Cuddle
EXTD=
EXTT0=
EXTT1=
EXTT2=
EXTT3=
PLAYORDER=
